<svg xmlns="http://www.w3.org/2000/svg" viewBox="0 0 509 437.01"><defs><style>.cls-1{fill:#efe2c3;}.cls-2{fill:#b4bf41;}</style></defs><title>Asset 3</title><g id="Layer_2" data-name="Layer 2"><g id="Layer_3_copy" data-name="Layer 3 copy"><path class="cls-1" d="M250.5,0V363.65C393.38,363.53,509,295.43,509,181.82,509,71,393.38.12,250.5,0Zm178,204.15a41,41,0,1,1,41-41A41,41,0,0,1,428.5,204.15Z"/><path class="cls-2" d="M0,218.51C0,355,112,436.87,250.5,437V0C112,.15,0,85.27,0,218.51Zm42.5-69.36h33v-33h29v33h33v29h-33v33h-29v-33h-33ZM53.1,257.32l-5.26-35L76.51,218l5.26,35ZM93,326.53l-21.41-28.2,23.1-17.53L116.06,309Zm63.93,46.54-30.67-17.7,14.5-25.11L171.39,348Zm77,18.84-35.22-3.66,3-28.84,35.22,3.66Z"/></g></g></svg>